# xmcd
#
# Track frame offsets:
#	150
#	21778
#	42699
#	59203
#	74008
#	103939
#	120192
#	150727
#	168432
#	204191
#	233459
#	244491
#	252896
#
# Disc length: 3587 seconds
# Revision: 0
# Processed by: cddbd v1.5.2PL0 Copyright (c) Steve Scherf et al.
# Submitted via: dBpowerAMP V12.0
#
DISCID=b70e010d
DTITLE=Raunchy - Velvet Noise [Extended]
DYEAR=2007
DGENRE=Metal
TTITLE0=Twelve Feet Tall
TTITLE1=Bleeding
TTITLE2=Drive
TTITLE3=Tonight
TTITLE4=Leech
TTITLE5=My Game
TTITLE6=Crack of Dawn
TTITLE7=Out of Sight
TTITLE8=This Is Not an Exit
TTITLE9=Never Be
TTITLE10=Decemberklar
TTITLE11=Last Christmas
TTITLE12=From Out of Nowhere
EXTD=
EXTT0=
EXTT1=
EXTT2=
EXTT3=
EXTT4=
EXTT5=
EXTT6=
EXTT7=
EXTT8=
EXTT9=
EXTT10=
EXTT11=
EXTT12=
PLAYORDER=
